<svg height="512pt" viewBox="0 0 512 512" width="512pt" xmlns="http://www.w3.org/2000/svg"><path d="m407 310h-392c-8.285156 0-15-6.714844-15-15v-280c0-8.285156 6.714844-15 15-15h392c8.285156 0 15 6.714844 15 15v280c0 8.285156-6.714844 15-15 15zm0 0" fill="#2db124"/><path d="m407 0h-196v310h196c8.285156 0 15-6.714844 15-15v-280c0-8.285156-6.714844-15-15-15zm0 0" fill="#25931e"/><path d="m392 88.492188c-29.34375-5.980469-52.511719-29.148438-58.492188-58.492188h-245.015624c-5.980469 29.34375-29.148438 52.511719-58.492188 58.492188v133.019531c29.34375 5.976562 52.511719 29.144531 58.492188 58.488281h245.019531c5.976562-29.34375 29.144531-52.507812 58.488281-58.488281zm0 0" fill="#8dd55c"/><path d="m333.507812 30h-122.507812v250h122.507812c5.980469-29.34375 29.148438-52.511719 58.492188-58.492188v-133.015624c-29.34375-5.980469-52.511719-29.148438-58.492188-58.492188zm0 0" fill="#6fc551"/><path d="m362 198.085938v140.25c0 8.28125 6.714844 15 15 15s15-6.71875 15-15v-140.25zm0 0" fill="#ffa171"/><path d="m467 240c-5.257812 0-10.304688.914062-15 2.578125v-17.578125c0-24.8125-20.1875-45-45-45-11.515625 0-22.03125 4.355469-30 11.496094-7.96875-7.140625-18.484375-11.496094-30-11.496094-24.8125 0-45 20.1875-45 45v17.578125c-4.695312-1.664063-9.742188-2.578125-15-2.578125-24.8125 0-45 20.1875-45 45v100.675781c-8.261719-7.40625-18.816406-11.457031-30-11.457031-12.019531 0-23.320312 4.679688-31.820312 13.179688s-13.179688 19.800781-13.179688 31.820312 4.679688 23.320312 13.179688 31.816406l44.855468 44.855469c10.386719 10.386719 24.199219 16.109375 38.890625 16.109375h193.074219c30.328125 0 55-24.671875 55-55v-172c0-24.8125-20.1875-45-45-45zm0 0" fill="#ffb48d"/><path d="m467 240c-5.257812 0-10.304688.914062-15 2.578125v-17.578125c0-24.8125-20.1875-45-45-45-11.515625 0-22.03125 4.355469-30 11.496094v320.503906h80c30.328125 0 55-24.671875 55-55v-172c0-24.8125-20.1875-45-45-45zm0 0" fill="#ffa171"/><path d="m377 191.496094c-8.285156 0-15 6.714844-15 15v138.503906c0 8.285156 6.714844 15 15 15s15-6.714844 15-15v-138.503906c0-8.285156-6.714844-15-15-15zm0 0" fill="#ffa171"/><path d="m437 227.578125c-8.285156 0-15 6.71875-15 15v102.421875c0 8.285156 6.714844 15 15 15s15-6.714844 15-15v-102.421875c0-8.28125-6.714844-15-15-15zm0 0" fill="#df8d63"/><path d="m317 227.578125c-8.285156 0-15 6.71875-15 15v101.996094c0 8.078125 6.207031 15.027343 14.273438 15.410156 8.617187.40625 15.726562-6.460937 15.726562-14.984375v-102.421875c0-8.28125-6.714844-15-15-15zm0 0" fill="#ffa171"/><path d="m211 110h30c8.285156 0 15-6.714844 15-15s-6.714844-15-15-15h-15v-5c0-8.285156-6.714844-15-15-15s-15 6.714844-15 15v7.578125c-17.460938 6.195313-30 22.867187-30 42.421875 0 24.8125 20.1875 45 45 45 8.269531 0 15 6.730469 15 15s-6.730469 15-15 15h-30c-8.285156 0-15 6.714844-15 15s6.714844 15 15 15h15v5c0 8.285156 6.714844 15 15 15s15-6.714844 15-15v-7.578125c17.460938-6.195313 30-22.867187 30-42.421875 0-24.8125-20.1875-45-45-45-8.269531 0-15-6.730469-15-15s6.730469-15 15-15zm0 0" fill="#2d2d55"/><path d="m241 110c8.285156 0 15-6.714844 15-15s-6.714844-15-15-15h-15v-5c0-8.285156-6.714844-15-15-15v50zm0 0" fill="#0a0a48"/><path d="m226 235v-7.578125c17.460938-6.195313 30-22.867187 30-42.421875 0-24.8125-20.1875-45-45-45v30c8.269531 0 15 6.730469 15 15s-6.730469 15-15 15v50c8.285156 0 15-6.714844 15-15zm0 0" fill="#0a0a48"/><path d="m377 191.496094v168.503906c8.285156 0 15-6.714844 15-15v-138.503906c0-8.285156-6.714844-15-15-15zm0 0" fill="#df8d63"/></svg>